<svg id="Solutions:_Sales_Professionals" data-name="Solutions: Sales Professionals" xmlns="http://www.w3.org/2000/svg" width="552" height="580" viewBox="0 0 552 580"><defs><style>.cls-1,.cls-13,.cls-14{fill:none}.cls-2{clip-path:url(#clip-path)}.cls-3{fill:#3b2314}.cls-4{fill:#ffbd92}.cls-5{fill:#feaa85}.cls-6{fill:#f5f5f5}.cls-7{fill:#e6e7e8}.cls-8{fill:#2e2b33}.cls-9{fill:#0e0f2d}.cls-10{fill:#ffa685}.cls-11{fill:#000003}.cls-12{fill:#422b21}.cls-13,.cls-14{stroke:#000003;stroke-linecap:round;stroke-width:3.64px}.cls-14{stroke:#d8d0bc}.cls-15{fill:#f6977f}.cls-16{fill:#102333}.cls-17{fill:#d8d0bc}.cls-18{fill:#ece6e1}.cls-19{fill:#ffad8c}.cls-20{fill:#db3333}.cls-21{fill:#5b331d}.cls-22{fill:#929497}.cls-23{fill:#6b9c38}.cls-24{fill:#90414d;opacity:.55}</style><clipPath id="clip-path"><path class="cls-1" d="M0 0h552v580H0z"/></clipPath></defs><title>LP-Solutions-Sales-Professionals</title><g class="cls-2"><path class="cls-3" d="M150.47 151.78c-12.26-3.36-29.83-16.15-36.28-27.69-5.91 9.27-2.73 22.28 2.12 31.34s12.84 11.85 22.54 13.25a53.76 53.76 0 0 0 16.06-.15z"/><path class="cls-4" d="M153.3 154.21a12.35 12.35 0 0 1 11.44 13.22l-3 41.25a12.36 12.36 0 1 1-24.65-1.78l3-41.25a12.35 12.35 0 0 1 13.21-11.44z"/><path class="cls-5" d="M153.3 154.21a12.35 12.35 0 0 1 11.44 13.22l-3 41.25a12.36 12.36 0 0 1-12.12 11.47l.9-12.48a12.35 12.35 0 0 0-11.43-13.21H138l2.08-28.79a12.35 12.35 0 0 1 13.22-11.46z"/><path class="cls-4" d="M125.79 84l73.59.27a46.87 46.87 0 0 1 4.51 20.51l-.15 42.22c-2.44 36.38-39.55 34.2-39.55 34.2h-.95a43 43 0 0 1-42.83-43.2l.12-33.54A42.81 42.81 0 0 1 125.79 84z"/><path class="cls-5" d="M125.83 84h10.69a42.68 42.68 0 0 0-3.12 15.88l-.12 33.55c-.09 23.75 13.86 43 37.58 43.12h9.3l.65-29.29a11.64 11.64 0 0 0 9.76-9.68c-6.32-5.09-8.16-9-8.23-20.07-.09-8.35.11-33.38.11-33.38l17 .07a46.87 46.87 0 0 1 4.51 20.51l-.22 42.29c-.07 41.3-39.55 34.2-39.55 34.2h-.95a43 43 0 0 1-42.83-43.2l.12-33.54a42.83 42.83 0 0 1 5.3-20.46z"/><path class="cls-6" d="M161.94 155.56a13.68 13.68 0 0 0 27-.15z"/><path class="cls-4" d="M116 123.22a12 12 0 1 0-.09 24l19.52.07-.63-24z"/><path class="cls-5" d="M110.85 135.2a5.69 5.69 0 0 0 5.67 5.72h6.72v-11.39h-6.7a5.71 5.71 0 0 0-5.69 5.67z"/><path class="cls-7" d="M125 147.79a4.54 4.54 0 1 1-4.57-4.51 4.53 4.53 0 0 1 4.57 4.51z"/><path class="cls-8" d="M116 118.16v4.53c6.73 1 12.67 2.59 12.32 16.35a7.4 7.4 0 0 0 7.42-7.38v-5.35a11.93 11.93 0 0 1 5.68-8.15z"/><path class="cls-9" d="M164.19 126.76a3.88 3.88 0 1 1-3.88-3.89 3.88 3.88 0 0 1 3.88 3.89zM195.13 126.76a3.88 3.88 0 1 1-3.88-3.89 3.88 3.88 0 0 1 3.88 3.89z"/><path class="cls-8" d="M151.74 124.28a1 1 0 0 1-.91-1.34c0-.08 3.25-7.94 12.43-5.29a1 1 0 1 1-.54 1.88c-7.49-2.15-10 3.87-10.07 4.13a1 1 0 0 1-.91.62zM197.24 121.67a1 1 0 0 1-.64-.24c-5.88-5-10.67-.62-10.87-.43a1 1 0 0 1-1.36-1.42c.06-.06 6.26-5.86 13.51.36a1 1 0 0 1-.64 1.73z"/><path class="cls-10" d="M229.63 441.34a14.6 14.6 0 0 0-1.72-10.78l-3.59-5.32c-1.86-2.74-7.36-19.85-7.36-19.85l-14.8 5s-.23 6.35-.23 16.32c0 3.32.5 8.21 2.34 11l.73 1.08a43.31 43.31 0 0 1 4.86 10.86z"/><path class="cls-11" d="M240.48 467.29h-43.55v-21.7a9.46 9.46 0 0 1 9.45-9.44H231a9.45 9.45 0 0 1 9.44 9.44v21.7zm-37.73-5.81h31.92v-15.89A3.63 3.63 0 0 0 231 442h-24.62a3.64 3.64 0 0 0-3.64 3.62v15.88z"/><path class="cls-12" d="M279.15 455.39h-114a7.31 7.31 0 0 0-6.59 7.28v79.85a7.32 7.32 0 0 0 4 6.49 24 24 0 0 0 6 .77h109.59a52.06 52.06 0 0 0 6.64-24.38z"/><path class="cls-11" d="M285.49 542.53a7.34 7.34 0 0 1-7.34 7.35 7.34 7.34 0 0 1-7.34-7.35v-79.86a7.34 7.34 0 0 1 7.34-7.35 7.34 7.34 0 0 1 7.34 7.35z"/><path class="cls-13" d="M264.23 475.59h-96.88"/><path class="cls-14" d="M259.99 475.59v8.91"/><path class="cls-10" d="M190 230.4c-1.54 63.88 3 130.13 13.54 197l19.18-3.14c-10.34-65.64-14.82-130.69-13.29-193.36a9.84 9.84 0 0 0-9.46-9.78 9.45 9.45 0 0 0-10 9.3zM206.63 444.93a6.6 6.6 0 0 0 6.67 6.55l10.39-.1a6.61 6.61 0 1 0-.12-13.22l-10.39.11a6.6 6.6 0 0 0-6.55 6.66zM160.89 696a10.11 10.11 0 0 1-1.69-.14 10 10 0 0 1-8.2-11.55l2.07-12.06c9.39-54.41 20-130.63 10.1-236.28a10 10 0 1 1 19.92-1.88c10.18 108.31-.7 185.92-10.3 241.56l-2.06 12a10 10 0 0 1-9.85 8.33z"/><path class="cls-15" d="M183.1 434.1a10 10 0 1 0-19.91 1.9c2.65 28.18 3.82 53.2 4 75.82h20c-.19-23.19-1.37-48.82-4.09-77.72z"/><path class="cls-10" d="M124.68 399.96v302.11l-20.69-17.47V399.96h20.69z"/><path class="cls-15" d="M103.99 399.96h20.68V511.8h-20.68z"/><path class="cls-16" d="M204.53 490.64H90.16V381.7h105.27l9.1 108.94z"/><path class="cls-17" d="M191.67 377.54a1078.8 1078.8 0 0 1-7.47-153.44 13.1 13.1 0 0 1 13.65-12.85 13.45 13.45 0 0 1 13.05 13.51 1052.28 1052.28 0 0 0 7.29 149.6z"/><path class="cls-18" d="M220.54 375l-2-20.05-16.79 1.88c-9.27 1-16.06 9.49-15.2 17.53l.45 4.4zM206 258.69l-4.89-14.48 3.09-31.43-53-20.36-49.49 12.39 14.4 134.91 79.3 8.21-.14-46.83 1.07-9.86a29.52 29.52 0 0 0 9.66-32.55z"/><path class="cls-19" d="M134.01 196.73l36.51 50.72v-47.6l-19.31-7.43-17.2 4.31z"/><path class="cls-3" d="M67 151.08v30.13h5.6A36.19 36.19 0 0 0 108.78 145v-30.11h-5.59A36.19 36.19 0 0 0 67 151.08z"/><circle class="cls-20" cx="104.76" cy="114.89" r="9.65"/><path class="cls-3" d="M175.34 85.92c10.52 5.5 23.91 20.5 27.38 32.09 7.39-7 7.23-19.25 4.71-28.3s-9.25-13.18-17.84-16.42a51.78 51.78 0 0 0-14.76-3.18z"/><path class="cls-21" d="M107.94 132.38c-3-9.17-5.53-18.79-5.43-24.09.37-21.28 16-38.59 36.64-42.61 18.76-3.66 36.36 1.95 53.53 8.89-2.31 4.54-4.9 8.83-7.33 13.3-9.9 18.19-27.94 32-48.43 39.46v5a7.34 7.34 0 0 1-7.35 7.32h-12.24z"/><path class="cls-18" d="M149.69 322.17a59.41 59.41 0 0 1 45.74 21.43v38.1H90.16v-.09a59.55 59.55 0 0 1 59.53-59.44z"/><path class="cls-10" d="M131.69 352.92a12.2 12.2 0 0 0-2.19-10.61l-5.64-6.3a13.93 13.93 0 0 0-10.13-4.08l-6.45.51c-3.33.27-20.87-3.67-20.87-3.67l-3.56 16.17s5.31 3.54 13.83 8.76c2.84 1.75 7.28 3.85 10.61 3.6l1.31-.09a40.83 40.83 0 0 1 11.86 1.23l2.92.84a6.36 6.36 0 0 0 7.69-4.36z"/><path class="cls-10" d="M40.36 317.73c11.62 13.87 26.3 21.82 39.16 28.2l13.23 5.32 6.41-18.34-11.49-4.63C75.68 323 64.56 315.54 57 306.93z"/><path class="cls-18" d="M72 315.4c-15.72-11-25.76-25.69-19.48-40.4 7.5-20.33 33-36.34 58.2-45.06 6.18-2.06 9.56-9.52 7.57-16.63a12.74 12.74 0 0 0-16.59-8.51c-28.4 10.83-60 26.2-74.44 61.56-6.94 17.9-1.54 40.51 10.37 53.79a89.81 89.81 0 0 0 16.26 15z"/><path class="cls-17" d="M170.52 247.45l-33.84-23.88-7.93-25.52 8.81-11.23 32.96 60.63z"/><circle class="cls-22" cx="170.52" cy="255.1" r="3.1"/><circle class="cls-22" cx="170.52" cy="288.15" r="3.1"/><path class="cls-17" d="M170.52 247.45l6.58-45.07-13.79-15.56-1.37 9.73 8.58 50.9z"/><path class="cls-9" d="M167.35 382.94h-21.94l21.94-63.67v63.67zM99.17 490.64h-9.01V381.7h23.09L99.17 490.64z"/><path class="cls-17" d="M73.11 315.74l-15.34-13.08-10.83 13c-6 7.16-5 18 1.14 23.17l3.37 2.87z"/><g><path class="cls-8" d="M438.82 665.67l3.8-289.48c.1-8 7.17-14.4 15.8-14.3s15.54 6.7 15.44 14.7l-3.79 289.1z"/><path class="cls-9" d="M421.37 351.33c27.82 0 50.4 25.23 50.4 56.34v11.5H370.95v-11.5c0-31.11 22.56-56.34 50.42-56.34z"/><path class="cls-8" d="M361.28 663.5c5.11-98.26 8.51-189 10.79-287.51.17-8 7.3-14.26 15.92-14.1s15.49 6.8 15.32 14.79c-2.29 98.45-5.68 189-10.79 287.48z"/><path class="cls-9" d="M511.16 246.62c-5.25-18.71-12.85-35.63-21-52.13-3.61-7.24-11.9-10.19-18.33-6.75s-8.76 11.71-5.36 18.51c7.7 15.58 14.74 31.54 19.15 47.36z"/><path class="cls-18" d="M434.92 170.42l9.87 10.24a253.3 253.3 0 0 1 39.13 6.8l-4 57.71v148.19l-111-11.77v-148.2l-9.25-45.93a255.18 255.18 0 0 1 62.12-7.92z"/><path class="cls-17" d="M445 180.68v28.55l16.86-20.72.49-5.57c-5.8-.94-11.61-1.71-17.35-2.26z"/><path class="cls-5" d="M421.8 123.71a13.13 13.13 0 0 0-13.13 13.13v43.94l20.91 13.13 5.34-13.13v-43.94a13.13 13.13 0 0 0-13.12-13.13z"/><path class="cls-4" d="M474.28 69v57a53.58 53.58 0 0 1-17.38 35c-1.46.31-23.22 0-23.55 0a43.7 43.7 0 0 1-43.57-43.81V69z"/><path class="cls-4" d="M385.29 102.17a12.22 12.22 0 1 0 0 24.44h19.89l-.73-24.44z"/><path class="cls-18" d="M414.74 209.23l-17.86-28.51 11.05-10.3 21.64 23.49-14.83 15.32z"/><path class="cls-17" d="M414.74 209.23l15.06-15.06 15.06 15.06h-30.12z"/><path class="cls-8" d="M397 180.86l48 76.75v-76.93a253.13 253.13 0 0 1 39 6.78l-.35 57.71v158.72H360l8.91-78.48-8.91-80.24-.34-57.71a251.32 251.32 0 0 1 37.34-6.6z"/><path class="cls-22" d="M440.34 271.79a4.61 4.61 0 1 0 4.61-4.61 4.61 4.61 0 0 0-4.61 4.61z"/><path class="cls-23" d="M438.56 212.47l6.3 21.3.09 23.84-14.32-22.91 2.11-22.04-12.21-9.42 9.06-8.29 9.03 8.28-.06 9.24z"/><path class="cls-10" d="M492.4 281.41c3.85-1.83 5-4.57 4.06-8.15l-.57-2.13c-.94-3.58-4.35-7.37-7.58-8.42l-8.13-2.64a12.94 12.94 0 0 0-10.67 1.84l-5.1 4a35.11 35.11 0 0 1-6 2.91l8.66 22.13a33.44 33.44 0 0 0 14.16-2.2c5.98-2.45 7.32-5.51 11.17-7.34z"/><path class="cls-9" d="M483.62 286.45c6.05-.58 6.88-17.07 2-32.83l11.83-7.62 13.71.64c2.5 9.42 4.57 19.31 4.06 30.77.24 10.76-6.66 27.44-20.63 33.13-25.9 8.8-44.17.23-62.21-5a387 387 0 0 1-38.58-16.48l10.75-24.23c27.45 13.37 59.95 26.99 79.07 21.62z"/><path class="cls-18" d="M393.78 259.52c3.47 1.74 7.07 3.53 10.77 5.33l-10.75 24.23q-6.1-3-12.12-6z"/><path class="cls-8" d="M456.34 269c-27.93 11.09-63.53 22-82.9 11.7-17.09-9.47-9.45-47.82 2.33-74.34 2.85-6.79.22-14.81-6.33-18.09s-14.83.15-18.07 7.87c-6.62 15.94-12.05 32.6-14 51-2 17 .6 43.12 22.23 56.11 42 18.54 75.14.37 106.51-9.69z"/><path class="cls-18" d="M475.85 274.83c-3-6.67-9.93-9.93-19.51-5.87l9.8 24.58c11.47-4.59 12.69-12.04 9.71-18.71z"/><path class="cls-10" d="M386.2 273.63l-4.25 8c-3.3-.36-8-1.44-10.44-3.78l-.94-.92a38.19 38.19 0 0 0-9.87-6.55l-2.78-1.16c-3-1.26-4.42-5.12-3.08-8.56l.82-2.05c1.35-3.45 5.19-6.82 8.52-7.48l8.38-1.67a13 13 0 0 1 10.38 3.07l4.61 4.54a34.62 34.62 0 0 0 5.59 3.59z"/><path class="cls-9" d="M368.29 346.72a8.1 8.1 0 0 0 8.11 8.11h30.85a8.11 8.11 0 0 0 8.12-8.11 8.12 8.12 0 0 0-8.12-8.11H376.4a8.11 8.11 0 0 0-8.11 8.11z"/><path class="cls-8" d="M368.29 338.61a8.11 8.11 0 0 0 8.11 8.11h30.85a8.12 8.12 0 0 0 8.12-8.11 8.11 8.11 0 0 0-8.12-8.12H376.4a8.11 8.11 0 0 0-8.11 8.12z"/><path class="cls-9" d="M445.62 404.79h-21.4l21.4-62.13v62.13z"/><path class="cls-4" d="M474.28 88.27c0-22.73-15.92-41.16-38.65-41.16a41.16 41.16 0 0 0-41.16 41.16v32.12a41.16 41.16 0 0 0 41.16 41.16h17.97a20.66 20.66 0 0 0 20.68-20.47z"/><path class="cls-5" d="M451.75 161.55h1.86a20.47 20.47 0 0 0 7.23-1.33l.33-.13q.66-.26 1.3-.56l.55-.27c.34-.17.67-.35 1-.54l.67-.41.77-.52c.25-.17.5-.35.75-.53l.19-.14a20.33 20.33 0 0 0 7.92-16V88.27c0-16.26 2.43-45.1-20.61-37v49.33l7.62 26.48-10.21 4.14.71 25.91z"/><path class="cls-9" d="M466.93 103.65a4 4 0 0 1-4 4 4 4 0 0 1-4.05-4 4.05 4.05 0 0 1 4.05-4 4 4 0 0 1 4 4zM431.94 103.65a4 4 0 0 1-4 4 4 4 0 0 1-4-4 4 4 0 0 1 4-4 4 4 0 0 1 4 4z"/><path class="cls-24" d="M459.32 138.87c.61.93 0 2.41-1.37 3-5.43 2.42-8.8 2.42-14.23 0-1.41-.63-2-2.11-1.37-3a2.41 2.41 0 0 1 3-.64c4.18 1.86 6.77 1.86 10.94 0a2.41 2.41 0 0 1 3 .64z"/><path class="cls-9" d="M428.21 89.33H444a8.43 8.43 0 0 1-8.38 7.58h-15.8a8.42 8.42 0 0 1 8.39-7.58zM462.28 89.33h11.28a8.43 8.43 0 0 1-8.38 7.58h-11.29a8.42 8.42 0 0 1 8.39-7.58z"/><path class="cls-9" d="M487.36 37.16H417a34.64 34.64 0 0 0-27.79 13.93 13.39 13.39 0 0 0-14.94-4.83l3.86 3.86a17.26 17.26 0 0 1 4.38 10.59v41.56h4.87V111a7.27 7.27 0 1 0 14.54 0v-5.25a11.71 11.71 0 0 1 11.51-9.66V81.7a11.69 11.69 0 0 1 11.51-9.63V72h49.86a15.49 15.49 0 0 0 15.37-14h-12.69a34.61 34.61 0 0 0 9.88-20.84z"/></g></g></svg>